PathFileType	4	(X/Y/Z)	/Users/itak/Documents/Research/Walk-IL/dataset/trc/00034_00004.trc
DataRate	CameraRate	NumFrames	NumMarkers	Units	OrigDataRate	OrigDataStartFrame	OrigNumFrames
100.000000	100.000000	4	53	mm	100.000000	302	806
Frame#	Time	RPSI			LPSI			L3			STRN			T10			C7			CLAV			RBAK			LBAK			LSHO			LUPA			LAEL			LAOL			LWTS			LWPS			LFRA			LIFD			LHPS			LHTS			RSHO			RUPA			RAEL			RAOL			RWTS			RWPS			RFRA			RIFD			RHTS			RHPS			RBHD			LFHD			RFHD			LBHD			LHIP			RHIP			RASI			LASI			LKNE			LTHI			LANK			LTIP			LTOE			LMT1			LMT5			LHEE			RKNE			RTHI			RANK			RTIP			RTOE			RMT1			RMT5			RHEE			
		X1	Y1	Z1	X2	Y2	Z2	X3	Y3	Z3	X4	Y4	Z4	X5	Y5	Z5	X6	Y6	Z6	X7	Y7	Z7	X8	Y8	Z8	X9	Y9	Z9	X10	Y10	Z10	X11	Y11	Z11	X12	Y12	Z12	X13	Y13	Z13	X14	Y14	Z14	X15	Y15	Z15	X16	Y16	Z16	X17	Y17	Z17	X18	Y18	Z18	X19	Y19	Z19	X20	Y20	Z20	X21	Y21	Z21	X22	Y22	Z22	X23	Y23	Z23	X24	Y24	Z24	X25	Y25	Z25	X26	Y26	Z26	X27	Y27	Z27	X28	Y28	Z28	X29	Y29	Z29	X30	Y30	Z30	X31	Y31	Z31	X32	Y32	Z32	X33	Y33	Z33	X34	Y34	Z34	X35	Y35	Z35	X36	Y36	Z36	X37	Y37	Z37	X38	Y38	Z38	X39	Y39	Z39	X40	Y40	Z40	X41	Y41	Z41	X42	Y42	Z42	X43	Y43	Z43	X44	Y44	Z44	X45	Y45	Z45	X46	Y46	Z46	X47	Y47	Z47	X48	Y48	Z48	X49	Y49	Z49	X50	Y50	Z50	X51	Y51	Z51	X52	Y52	Z52	X53	Y53	Z53	

303	3.02	-215.8136291503906	1044.323120117188	-216.422607421875	-316.3711853027344	1049.152709960938	-346.6039733886719	-271.8281555175781	1111.3818359375	-281.2085571289062	-79.93789672851562	1291.178955078125	-406.6705627441406	-281.4918823242188	1256.033813476562	-258.8178100585938	-220.0059204101562	1520.5234375	-284.9032287597656	-103.5352096557617	1418.303833007812	-378.0664978027344	-232.0824432373047	1378.634887695312	-194.43115234375	-297.1474304199219	1494.562255859375	-351.3831176757812	-259.3460998535156	1500.690551757812	-471.0841979980469	-356.8914794921875	1395.654418945312	-509.5795593261719	-430.375244140625	1191.024291992188	-519.5377197265625	-423.7390441894531	1187.5791015625	-414.0377502441406	-410.5501098632812	918.9003295898438	-493.9237060546875	-498.2052307128906	933.046875	-488.732666015625	-459.3279724121094	1077.57763671875	-520.767578125	-438.5448303222656	733.43408203125	-465.974365234375	-499.8337707519531	836.4521484375	-492.75732421875	-429.6063232421875	823.3234252929688	-503.4474487304688	-63.08388137817383	1482.0732421875	-188.6791381835938	-41.71541976928711	1407.643920898438	-125.5649566650391	-78.19902038574219	1137.282348632812	-93.03688049316406	-136.5421295166016	1119.855712890625	-173.2298278808594	42.45987319946289	944.12060546875	-274.4810485839844	41.36820983886719	895.7752685546875	-195.5975494384766	-49.22257614135742	1060.282958984375	-106.8851852416992	82.48179626464844	788.0877685546875	-367.5064086914062	97.14273834228516	857.215087890625	-323.8766174316406	89.45454406738281	821.0116577148438	-258.2991333007812	-118.4967193603516	1704.420166015625	-394.5728454589844	54.66451263427734	1637.635986328125	-279.6500549316406	53.59172058105469	1649.80224609375	-377.3905639648438	-110.9660491943359	1681.888793945312	-251.7371368408203	-304.2975769042969	952.46240234375	-503.4816284179688	-75.69541931152344	916.3828125	-210.1585998535156	-32.69001388549805	956.738525390625	-327.0596618652344	-174.4064025878906	997.6055297851562	-511.1897277832031	-107.2594604492188	543.4868774414062	-596.8544921875	-193.0914916992188	666.947998046875	-587.8436279296875	-266.3706970214844	66.12339019775391	-630.94580078125	-213.9618988037109	313.6053771972656	-619.7667236328125	-45.47099685668945	60.6417350769043	-671.2688598632812	-89.59958648681641	61.88875579833984	-628.6651000976562	-166.3818969726562	67.68164825439453	-703.9341430664062	-304.8122863769531	65.08788299560547	-554.6434326171875	-169.4783630371094	491.3662414550781	-300.8942260742188	-84.79053497314453	748.1752319335938	-247.5695953369141	-371.8935852050781	42.95061874389648	-263.6682739257812	-215.7234954833984	372.1526184082031	-297.3609924316406	-247.4043121337891	37.55653381347656	-463.6549987792969	-310.7976379394531	43.44869995117188	-437.1162719726562	-255.4765319824219	39.68679046630859	-357.3047485351562	-441.6717834472656	49.22031021118164	-254.8201751708984	
304	3.03	-211.3992309570312	1043.322143554688	-222.1883850097656	-309.7368469238281	1047.938232421875	-354.0893859863281	-266.287841796875	1110.233154296875	-288.0158386230469	-72.67596435546875	1289.943359375	-410.6028442382812	-276.4194641113281	1254.953002929688	-265.8941650390625	-214.5740356445312	1519.455200195312	-291.3437805175781	-96.74308013916016	1417.136962890625	-382.6277770996094	-227.8993835449219	1377.72265625	-200.8348541259766	-290.6839904785156	1493.264892578125	-358.9299621582031	-251.2000732421875	1499.235717773438	-478.0803833007812	-348.1953125	1394.100341796875	-517.78564453125	-421.6295776367188	1189.479858398438	-528.3800659179688	-416.3554382324219	1186.25	-422.8109130859375	-403.1092529296875	917.3904418945312	-501.7568054199219	-490.837158203125	931.88134765625	-497.840576171875	-450.9356689453125	1076.1318359375	-529.7402954101562	-432.6746826171875	732.0564575195312	-473.3644409179688	-492.9512634277344	835.2881469726562	-501.5140991210938	-422.6685791015625	821.768798828125	-511.2180480957031	-59.12830352783203	1481.27880859375	-192.7441711425781	-38.58767700195312	1406.913940429688	-129.1996307373047	-75.51194000244141	1136.494140625	-97.24993133544922	-132.5939178466797	1119.047119140625	-178.1230773925781	48.09785079956055	944.2366943359375	-277.6407775878906	46.24514770507812	895.6536865234375	-198.9293060302734	-46.13285446166992	1059.458374023438	-110.8956451416016	89.85915374755859	788.6187133789062	-370.5995483398438	103.7589721679688	857.73828125	-326.6321411132812	95.37139892578125	821.2861938476562	-261.2304382324219	-111.8548202514648	1703.332763671875	-399.5913391113281	59.76116943359375	1636.894897460938	-282.2147521972656	60.06625366210938	1649.053100585938	-379.9563293457031	-106.3711090087891	1680.8173828125	-256.68994140625	-295.2588500976562	951.2482299804688	-510.8215942382812	-71.35641479492188	915.5375366210938	-213.1077270507812	-26.61188316345215	955.5203857421875	-329.5458068847656	-165.2472991943359	996.253173828125	-516.300048828125	-94.32438659667969	544.2537841796875	-601.2598266601562	-181.1562957763672	666.5731811523438	-593.578369140625	-234.1784515380859	62.81003189086914	-646.6136474609375	-191.7300109863281	311.8400573730469	-630.2999267578125	-11.78224277496338	63.22922897338867	-679.5676879882812	-57.30228042602539	63.1366081237793	-638.4900512695312	-131.8134002685547	67.63080596923828	-716.2271728515625	-275.2339782714844	60.11966705322266	-571.7456665039062	-166.4950103759766	490.6283874511719	-302.5427551269531	-80.97350311279297	747.2691040039062	-249.8910522460938	-371.9850463867188	43.47240829467773	-263.8321838378906	-213.5246734619141	371.6035461425781	-298.555908203125	-247.4195709228516	37.47695541381836	-463.70947265625	-310.73779296875	43.4702033996582	-437.1904296875	-255.4431610107422	39.71097946166992	-357.3229370117188	-441.8346557617188	50.15202331542969	-255.1517333984375	
305	3.04	-206.8517608642578	1042.26123046875	-227.9380493164062	-302.9897766113281	1046.61474609375	-361.4916687011719	-260.6426391601562	1109.00634765625	-294.7769775390625	-65.35317230224609	1288.612915039062	-414.4973754882812	-271.2591857910156	1253.799438476562	-272.949951171875	-208.9434814453125	1518.3017578125	-297.7588806152344	-89.86603546142578	1415.873657226562	-387.1561889648438	-223.6007995605469	1376.73583984375	-207.2312774658203	-284.1264953613281	1491.875122070312	-366.4203186035156	-242.9580230712891	1497.684204101562	-485.01123046875	-339.3990478515625	1392.443969726562	-525.9114379882812	-412.7882385253906	1187.859497070312	-537.1910400390625	-408.7781372070312	1184.768920898438	-431.5755615234375	-395.5502319335938	915.7468872070312	-509.7886962890625	-483.3327941894531	930.6283569335938	-507.0932312011719	-442.4246215820312	1074.606201171875	-538.7529907226562	-426.6289978027344	730.5772094726562	-481.1680297851562	-485.8976135253906	834.0372314453125	-510.5158081054688	-415.5521850585938	820.1580200195312	-519.3031616210938	-55.07448577880859	1480.364013671875	-196.8150329589844	-35.39000701904297	1406.051879882812	-132.8404998779297	-72.79507446289062	1135.596435546875	-101.4321136474609	-128.6389465332031	1118.126708984375	-182.9987030029297	53.663330078125	944.0579833984375	-280.581298828125	51.00896453857422	895.2958984375	-202.0303955078125	-43.07479476928711	1058.5107421875	-114.839111328125	97.08475494384766	788.770751953125	-373.3302612304688	110.2853393554688	857.9139404296875	-329.0843505859375	101.1541519165039	821.2474975585938	-263.8506164550781	-105.0690383911133	1702.139404296875	-404.6134948730469	64.95180511474609	1636.029174804688	-284.796142578125	66.64594268798828	1648.17041015625	-382.4845275878906	-101.6505126953125	1679.6552734375	-261.6710815429688	-286.1954956054688	949.9177856445312	-518.0247802734375	-66.90030670166016	914.6661987304688	-216.0937042236328	-20.48157119750977	954.2379150390625	-332.0768127441406	-156.0745086669922	994.7598876953125	-521.3412475585938	-81.86764526367188	544.8480834960938	-605.60498046875	-169.592529296875	666.0291137695312	-599.1495361328125	-201.8367919921875	60.12311553955078	-660.8060913085938	-169.6955108642578	310.2649230957031	-640.0574951171875	21.46562194824219	66.29860687255859	-687.074462890625	-25.21677017211914	64.88070678710938	-647.43310546875	-97.55707550048828	68.13644409179688	-727.2822265625	-245.1374664306641	55.7894287109375	-587.316650390625	-163.3167114257812	489.9026489257812	-304.285888671875	-76.98335266113281	746.3548583984375	-252.30126953125	-372.0436401367188	44.07824325561523	-263.9815979003906	-211.1645812988281	371.0469055175781	-299.8247985839844	-247.4259796142578	37.42469787597656	-463.7568969726562	-310.6366882324219	43.53043365478516	-437.2470703125	-255.390869140625	39.73875045776367	-357.3379821777344	-441.9616394042969	51.19031143188477	-255.4854431152344	
306	3.05	-202.1615600585938	1041.1640625	-233.6787719726562	-296.1333923339844	1045.192749023438	-368.8226318359375	-254.9081420898438	1107.716186523438	-301.5021362304688	-57.97106552124023	1287.207153320312	-418.3612365722656	-266.012939453125	1252.586547851562	-279.9872741699219	-203.1427917480469	1517.075073242188	-304.1529846191406	-82.90177154541016	1414.529174804688	-391.6493835449219	-219.1993103027344	1375.683227539062	-213.6282501220703	-277.4695739746094	1490.410766601562	-373.8560180664062	-234.6174163818359	1496.053344726562	-491.8771362304688	-330.4910278320312	1390.699951171875	-533.9598999023438	-403.8421325683594	1186.179321289062	-545.9732666015625	-401.0052795410156	1183.152099609375	-440.3301391601562	-387.8856506347656	913.9766845703125	-517.9990844726562	-475.6737976074219	929.2976684570312	-516.487548828125	-433.7809753417969	1073.01416015625	-547.8040161132812	-420.3685607910156	729.0057373046875	-489.3900451660156	-478.644287109375	832.7098999023438	-519.759765625	-408.2357482910156	818.5013427734375	-527.6914672851562	-50.91256713867188	1479.344848632812	-200.8845977783203	-32.12361145019531	1405.068969726562	-136.4849548339844	-70.03531646728516	1134.597534179688	-105.5861587524414	-124.6865844726562	1117.103271484375	-187.8612518310547	59.15500259399414	943.58349609375	-283.3074951171875	55.65375137329102	894.7037963867188	-204.9041137695312	-40.02761459350586	1057.454467773438	-118.7177963256836	104.1662292480469	788.5517578125	-375.7149047851562	116.7023239135742	857.7328491210938	-331.2389526367188	106.7915802001953	820.8936767578125	-266.1712646484375	-98.13778686523438	1700.851806640625	-409.6377563476562	70.24073028564453	1635.050048828125	-287.3982238769531	73.33071899414062	1647.16357421875	-384.9815979003906	-96.78746795654297	1678.421020507812	-266.6775817871094	-277.0670776367188	948.4788818359375	-525.0960083007812	-62.3184700012207	913.798095703125	-219.1126708984375	-14.27364253997803	952.9150390625	-334.6427307128906	-146.8446655273438	993.1575317382812	-526.313232421875	-69.85573577880859	545.2534790039062	-609.9007568359375	-158.3968200683594	665.30810546875	-604.5868530273438	-169.4825744628906	58.04423141479492	-673.6141967773438	-147.9105377197266	308.8706665039062	-649.0932006835938	54.22225189208984	69.98486328125	-693.6766967773438	6.555893421173096	67.23046875	-655.4073486328125	-63.65327072143555	69.22740173339844	-737.1055908203125	-214.7290649414062	52.05194091796875	-601.467529296875	-159.9583740234375	489.2045593261719	-306.0595397949219	-72.82411956787109	745.45654296875	-254.7742767333984	-372.0533447265625	44.77731323242188	-264.1140747070312	-208.6535186767578	370.5043334960938	-301.1202392578125	-247.4337615966797	37.39723587036133	-463.7984619140625	-310.4928283691406	43.62933731079102	-437.28466796875	-255.3113861083984	39.76352691650391	-357.3468017578125	-442.0317687988281	52.34622192382812	-255.8052520751953	
